<svg width="264" height="93" viewBox="0 0 264 93" fill="none" xmlns="http://www.w3.org/2000/svg">
<rect x="0.5" y="0.5" width="262.146" height="91.1012" rx="4.5" fill="#1E1E1E" stroke="white"/>
<rect x="23.6836" y="76.3124" width="36.6644" height="5.78922" fill="white"/>
<rect x="72.0801" y="76.3124" width="36.6644" height="5.78922" fill="white"/>
<rect x="120.994" y="76.3124" width="36.6644" height="5.78922" fill="white"/>
<rect x="168.875" y="76.3124" width="36.6644" height="5.78922" fill="white"/>
<rect x="217.272" y="76.3124" width="36.6644" height="5.78922" fill="white"/>
<rect x="7.89453" y="10.5259" width="36.6645" height="5.78922" fill="white"/>
<rect x="56.291" y="10.5259" width="36.6645" height="5.78922" fill="white"/>
<rect x="104.688" y="10.5259" width="36.6645" height="5.78922" fill="white"/>
<rect x="153.086" y="10.5259" width="36.6645" height="5.78922" fill="white"/>
<rect x="201.483" y="10.5259" width="36.6645" height="5.78922" fill="white"/>
<path d="M85.0333 34.6783H90.0937L98.892 56.1612H99.2158L108.014 34.6783H113.074V62.3146H109.107V42.3161H108.851L100.7 62.2742H97.4076L89.257 42.3026H89.0006V62.3146H85.0333V34.6783ZM143.143 48.4965C143.143 51.4472 142.603 53.9841 141.524 56.1072C140.444 58.2214 138.964 59.8497 137.084 60.9922C135.213 62.1257 133.085 62.6925 130.701 62.6925C128.308 62.6925 126.172 62.1257 124.292 60.9922C122.42 59.8497 120.945 58.2169 119.866 56.0938C118.786 53.9706 118.246 51.4382 118.246 48.4965C118.246 45.5457 118.786 43.0133 119.866 40.8992C120.945 38.776 122.42 37.1477 124.292 36.0142C126.172 34.8717 128.308 34.3004 130.701 34.3004C133.085 34.3004 135.213 34.8717 137.084 36.0142C138.964 37.1477 140.444 38.776 141.524 40.8992C142.603 43.0133 143.143 45.5457 143.143 48.4965ZM139.014 48.4965C139.014 46.2474 138.65 44.3537 137.921 42.8153C137.201 41.268 136.212 40.0985 134.952 39.3068C133.702 38.5062 132.285 38.1058 130.701 38.1058C129.109 38.1058 127.688 38.5062 126.437 39.3068C125.187 40.0985 124.197 41.268 123.468 42.8153C122.749 44.3537 122.389 46.2474 122.389 48.4965C122.389 50.7455 122.749 52.6437 123.468 54.1911C124.197 55.7294 125.187 56.8989 126.437 57.6996C127.688 58.4912 129.109 58.8871 130.701 58.8871C132.285 58.8871 133.702 58.4912 134.952 57.6996C136.212 56.8989 137.201 55.7294 137.921 54.1911C138.65 52.6437 139.014 50.7455 139.014 48.4965ZM149.384 34.6783L157.076 57.1868H157.386L165.078 34.6783H169.585L159.64 62.3146H154.823L144.877 34.6783H149.384ZM177.746 34.6783V62.3146H173.576V34.6783H177.746ZM183.818 62.3146V34.6783H201.145V38.2678H187.988V46.6882H200.241V50.2642H187.988V58.7251H201.307V62.3146H183.818ZM221.788 41.9382C221.644 40.6608 221.05 39.6712 220.007 38.9695C218.963 38.2588 217.65 37.9034 216.066 37.9034C214.933 37.9034 213.952 38.0833 213.125 38.4432C212.297 38.794 211.654 39.2798 211.195 39.9006C210.745 40.5123 210.52 41.2095 210.52 41.9922C210.52 42.6489 210.673 43.2157 210.979 43.6925C211.294 44.1693 211.703 44.5696 212.207 44.8935C212.72 45.2083 213.269 45.4737 213.853 45.6896C214.438 45.8965 215 46.0675 215.54 46.2024L218.239 46.9041C219.121 47.12 220.025 47.4124 220.951 47.7813C221.878 48.1501 222.737 48.6359 223.529 49.2386C224.321 49.8414 224.959 50.5881 225.445 51.4787C225.94 52.3693 226.187 53.4354 226.187 54.6769C226.187 56.2422 225.782 57.6321 224.973 58.8466C224.172 60.0611 223.007 61.0192 221.478 61.7209C219.957 62.4226 218.118 62.7734 215.959 62.7734C213.889 62.7734 212.099 62.4451 210.588 61.7884C209.076 61.1316 207.893 60.2005 207.039 58.995C206.184 57.7805 205.712 56.3412 205.622 54.6769H209.805C209.886 55.6754 210.21 56.5076 210.777 57.1733C211.352 57.83 212.086 58.3203 212.976 58.6442C213.876 58.959 214.861 59.1165 215.932 59.1165C217.11 59.1165 218.158 58.9321 219.076 58.5632C220.002 58.1854 220.731 57.6636 221.262 56.9979C221.793 56.3232 222.058 55.536 222.058 54.6364C222.058 53.8177 221.824 53.1475 221.356 52.6257C220.897 52.1039 220.272 51.6721 219.481 51.3303C218.698 50.9884 217.812 50.687 216.822 50.4261L213.557 49.5355C211.343 48.9328 209.589 48.0466 208.294 46.8771C207.007 45.7076 206.364 44.1603 206.364 42.2351C206.364 40.6428 206.796 39.2528 207.66 38.0653C208.523 36.8778 209.693 35.9557 211.168 35.299C212.643 34.6333 214.308 34.3004 216.161 34.3004C218.032 34.3004 219.683 34.6288 221.113 35.2855C222.553 35.9422 223.686 36.8464 224.514 37.9979C225.342 39.1404 225.773 40.4538 225.809 41.9382H221.788Z" fill="#D5B50B"/>
<line x1="56.4375" y1="28.052" x2="41.9344" y2="68.525" stroke="white" stroke-width="2.5"/>
<line x1="47.2624" y1="28.9866" x2="94.2743" y2="25.069" stroke="white" stroke-width="2.5"/>
<line x1="36.7077" y1="44.6603" x2="73.2724" y2="40.7426" stroke="white" stroke-width="2.5"/>
</svg>
