<svg width="94" height="65" viewBox="0 0 94 65" fill="none" xmlns="http://www.w3.org/2000/svg">
<rect x="0.5" y="0.5" width="92.4966" height="63.7996" rx="4.5" fill="#1E1E1E" stroke="white"/>
<rect x="4.66602" y="50.9141" width="22.7005" height="4.07312" fill="white"/>
<rect x="34.6309" y="50.9141" width="22.7005" height="4.07312" fill="white"/>
<rect x="64.915" y="50.9141" width="22.7005" height="4.07312" fill="white"/>
<rect x="5.48047" y="8.3313" width="22.7005" height="4.07312" fill="white"/>
<rect x="35.4453" y="8.3313" width="22.7005" height="4.07312" fill="white"/>
<rect x="65.4102" y="8.3313" width="22.7005" height="4.07312" fill="white"/>
<path d="M46.1646 25.6962H50.1596L57.1056 42.6564H57.3613L64.3074 25.6962H68.3024V47.5144H65.1703V31.7261H64.9679L58.5332 47.4824H55.9338L49.4991 31.7154H49.2967V47.5144H46.1646V25.6962Z" fill="#D4B50B"/>
<line y1="-1.25" x2="28.9248" y2="-1.25" transform="matrix(-0.30074 0.953706 -0.926158 -0.377135 32.8213 19.4111)" stroke="white" stroke-width="2.5"/>
<line y1="-1.25" x2="28.3235" y2="-1.25" transform="matrix(0.995546 -0.0942752 0.0731369 0.997322 28.0859 21.1843)" stroke="white" stroke-width="2.5"/>
<line y1="-1.25" x2="22.0933" y2="-1.25" transform="matrix(0.992669 -0.120861 0.0938694 0.995584 21.7725 31.8657)" stroke="white" stroke-width="2.5"/>
</svg>
