<svg width="960" height="540" viewBox="0 0 960 540" fill="none" xmlns="http://www.w3.org/2000/svg">
<rect width="960" height="540" fill="#565656"/>
<path d="M624.631 90.7381L334.381 90.7381C325.742 90.7381 318.738 97.7416 318.738 106.381V296.875C318.738 305.514 325.742 312.517 334.381 312.517H624.631C633.27 312.517 640.273 305.514 640.273 296.875V106.381C640.273 97.7416 633.27 90.7381 624.631 90.7381Z" fill="#1E1E1E" stroke="white"/>
<path d="M412.131 265.987H333.22V280.146H412.131V265.987Z" fill="white"/>
<path d="M516.295 265.987H437.383V280.146H516.295V265.987Z" fill="white"/>
<path d="M621.568 265.987H542.657V280.146H621.568V265.987Z" fill="white"/>
<path d="M414.962 117.961H336.051V132.12H414.962V117.961Z" fill="white"/>
<path d="M519.126 117.961H440.214V132.12H519.126V117.961Z" fill="white"/>
<path d="M623.289 117.961H544.378V132.12H623.289V117.961Z" fill="white"/>
<path d="M477.477 178.325H491.364L515.51 237.282H516.399L540.544 178.325H554.432V254.169H543.544V199.286H542.841L520.472 254.058H511.436L489.068 199.249H488.364V254.169H477.477V178.325Z" fill="#D4B50B"/>
<path d="M435.117 158.115L404.879 254.009" stroke="white" stroke-width="2.5"/>
<path d="M414.314 158.307L512.333 149.025" stroke="white" stroke-width="2.5"/>
<path d="M392.277 195.445L468.515 186.163" stroke="white" stroke-width="2.5"/>
<path d="M130.095 386.314V380.455H171.004V386.314H153.852V435H147.247V386.314H130.095ZM176.098 435V394.091H182.17V400.27H182.596C183.342 398.246 184.691 396.603 186.644 395.343C188.598 394.082 190.799 393.452 193.25 393.452C193.711 393.452 194.288 393.461 194.981 393.478C195.673 393.496 196.197 393.523 196.552 393.558V399.95C196.339 399.897 195.851 399.817 195.087 399.711C194.342 399.586 193.551 399.524 192.717 399.524C190.728 399.524 188.953 399.941 187.39 400.776C185.845 401.593 184.62 402.729 183.715 404.185C182.827 405.623 182.383 407.266 182.383 409.112V435H176.098ZM216.041 435.959C213.449 435.959 211.096 435.471 208.983 434.494C206.87 433.5 205.192 432.07 203.95 430.206C202.707 428.324 202.085 426.051 202.085 423.388C202.085 421.044 202.547 419.144 203.47 417.688C204.393 416.214 205.627 415.06 207.172 414.226C208.717 413.391 210.422 412.77 212.286 412.362C214.168 411.935 216.059 411.598 217.959 411.349C220.445 411.03 222.46 410.79 224.005 410.63C225.567 410.453 226.703 410.16 227.414 409.751C228.142 409.343 228.506 408.633 228.506 407.621V407.408C228.506 404.78 227.787 402.738 226.348 401.282C224.928 399.826 222.771 399.098 219.876 399.098C216.876 399.098 214.523 399.755 212.819 401.069C211.114 402.383 209.915 403.786 209.223 405.277L203.257 403.146C204.322 400.661 205.743 398.725 207.518 397.34C209.312 395.937 211.265 394.961 213.378 394.411C215.509 393.842 217.604 393.558 219.663 393.558C220.977 393.558 222.487 393.718 224.191 394.038C225.913 394.339 227.574 394.97 229.172 395.929C230.787 396.887 232.128 398.335 233.193 400.27C234.259 402.205 234.791 404.798 234.791 408.047V435H228.506V429.46H228.186C227.76 430.348 227.05 431.298 226.055 432.31C225.061 433.322 223.738 434.183 222.087 434.893C220.436 435.604 218.42 435.959 216.041 435.959ZM217 430.312C219.486 430.312 221.581 429.824 223.286 428.848C225.008 427.871 226.304 426.61 227.174 425.066C228.062 423.521 228.506 421.896 228.506 420.192V414.439C228.239 414.759 227.653 415.051 226.748 415.318C225.86 415.566 224.83 415.788 223.658 415.984C222.504 416.161 221.377 416.321 220.276 416.463C219.193 416.587 218.314 416.694 217.639 416.783C216.006 416.996 214.479 417.342 213.058 417.821C211.656 418.283 210.519 418.984 209.649 419.925C208.797 420.849 208.371 422.109 208.371 423.707C208.371 425.891 209.179 427.543 210.794 428.661C212.428 429.762 214.496 430.312 217 430.312ZM246.264 435V394.091H252.549V435H246.264ZM249.46 387.273C248.234 387.273 247.178 386.855 246.29 386.021C245.42 385.186 244.985 384.183 244.985 383.011C244.985 381.839 245.42 380.836 246.29 380.002C247.178 379.167 248.234 378.75 249.46 378.75C250.685 378.75 251.732 379.167 252.602 380.002C253.49 380.836 253.934 381.839 253.934 383.011C253.934 384.183 253.49 385.186 252.602 386.021C251.732 386.855 250.685 387.273 249.46 387.273ZM270.347 380.455V435H264.061V380.455H270.347ZM299.011 435.852C295.07 435.852 291.669 434.982 288.811 433.242C285.97 431.484 283.777 429.034 282.232 425.891C280.705 422.731 279.942 419.055 279.942 414.865C279.942 410.675 280.705 406.982 282.232 403.786C283.777 400.572 285.925 398.068 288.677 396.275C291.447 394.464 294.679 393.558 298.372 393.558C300.503 393.558 302.607 393.913 304.684 394.624C306.762 395.334 308.653 396.488 310.357 398.086C312.062 399.666 313.42 401.761 314.432 404.371C315.444 406.982 315.95 410.195 315.95 414.013V416.676H284.416V411.243H309.558C309.558 408.935 309.097 406.875 308.173 405.064C307.268 403.253 305.972 401.824 304.285 400.776C302.616 399.728 300.645 399.205 298.372 399.205C295.869 399.205 293.702 399.826 291.873 401.069C290.062 402.294 288.669 403.892 287.692 405.863C286.715 407.834 286.227 409.947 286.227 412.202V415.824C286.227 418.913 286.76 421.532 287.825 423.681C288.908 425.811 290.409 427.436 292.326 428.555C294.244 429.656 296.472 430.206 299.011 430.206C300.663 430.206 302.154 429.975 303.486 429.513C304.835 429.034 305.998 428.324 306.975 427.383C307.951 426.424 308.706 425.234 309.239 423.814L315.311 425.518C314.672 427.578 313.598 429.389 312.088 430.952C310.579 432.496 308.715 433.704 306.495 434.574C304.276 435.426 301.781 435.852 299.011 435.852ZM325.512 435V394.091H331.584V400.27H332.01C332.756 398.246 334.105 396.603 336.059 395.343C338.012 394.082 340.213 393.452 342.664 393.452C343.125 393.452 343.702 393.461 344.395 393.478C345.087 393.496 345.611 393.523 345.966 393.558V399.95C345.753 399.897 345.265 399.817 344.501 399.711C343.756 399.586 342.965 399.524 342.131 399.524C340.142 399.524 338.367 399.941 336.804 400.776C335.259 401.593 334.034 402.729 333.129 404.185C332.241 405.623 331.797 407.266 331.797 409.112V435H325.512ZM418.616 380.455V435H412.224L382.501 392.173H381.968V435H375.363V380.455H381.755L411.585 423.388H412.117V380.455H418.616ZM447.6 435.852C443.907 435.852 440.666 434.973 437.878 433.216C435.109 431.458 432.942 428.999 431.38 425.838C429.835 422.678 429.063 418.984 429.063 414.759C429.063 410.497 429.835 406.777 431.38 403.599C432.942 400.421 435.109 397.953 437.878 396.195C440.666 394.437 443.907 393.558 447.6 393.558C451.293 393.558 454.524 394.437 457.294 396.195C460.082 397.953 462.248 400.421 463.793 403.599C465.355 406.777 466.137 410.497 466.137 414.759C466.137 418.984 465.355 422.678 463.793 425.838C462.248 428.999 460.082 431.458 457.294 433.216C454.524 434.973 451.293 435.852 447.6 435.852ZM447.6 430.206C450.405 430.206 452.713 429.487 454.524 428.049C456.335 426.61 457.676 424.719 458.546 422.376C459.416 420.032 459.851 417.493 459.851 414.759C459.851 412.024 459.416 409.476 458.546 407.115C457.676 404.753 456.335 402.844 454.524 401.388C452.713 399.933 450.405 399.205 447.6 399.205C444.794 399.205 442.486 399.933 440.675 401.388C438.864 402.844 437.523 404.753 436.653 407.115C435.783 409.476 435.348 412.024 435.348 414.759C435.348 417.493 435.783 420.032 436.653 422.376C437.523 424.719 438.864 426.61 440.675 428.049C442.486 429.487 444.794 430.206 447.6 430.206ZM493.523 394.091V399.418H472.322V394.091H493.523ZM478.501 384.29H484.787V423.281C484.787 425.057 485.044 426.388 485.559 427.276C486.092 428.146 486.767 428.732 487.583 429.034C488.418 429.318 489.297 429.46 490.22 429.46C490.912 429.46 491.481 429.425 491.925 429.354C492.368 429.265 492.724 429.194 492.99 429.141L494.268 434.787C493.842 434.947 493.247 435.107 492.484 435.266C491.72 435.444 490.753 435.533 489.581 435.533C487.805 435.533 486.065 435.151 484.361 434.387C482.674 433.624 481.271 432.461 480.153 430.898C479.052 429.336 478.501 427.365 478.501 424.986V384.29ZM527.161 435H520.236L540.264 380.455H547.083L567.111 435H560.186L543.887 389.084H543.46L527.161 435ZM529.718 413.693H557.629V419.553H529.718V413.693ZM603.08 394.091L587.952 435H581.56L566.432 394.091H573.25L584.543 426.69H584.969L596.261 394.091H603.08ZM622.169 435.959C619.577 435.959 617.224 435.471 615.111 434.494C612.998 433.5 611.32 432.07 610.078 430.206C608.835 428.324 608.213 426.051 608.213 423.388C608.213 421.044 608.675 419.144 609.598 417.688C610.521 416.214 611.755 415.06 613.3 414.226C614.845 413.391 616.549 412.77 618.414 412.362C620.296 411.935 622.187 411.598 624.087 411.349C626.573 411.03 628.588 410.79 630.133 410.63C631.695 410.453 632.831 410.16 633.542 409.751C634.27 409.343 634.634 408.633 634.634 407.621V407.408C634.634 404.78 633.915 402.738 632.476 401.282C631.056 399.826 628.899 399.098 626.004 399.098C623.004 399.098 620.651 399.755 618.946 401.069C617.242 402.383 616.043 403.786 615.351 405.277L609.385 403.146C610.45 400.661 611.871 398.725 613.646 397.34C615.44 395.937 617.393 394.961 619.506 394.411C621.636 393.842 623.732 393.558 625.791 393.558C627.105 393.558 628.614 393.718 630.319 394.038C632.041 394.339 633.701 394.97 635.299 395.929C636.915 396.887 638.256 398.335 639.321 400.27C640.386 402.205 640.919 404.798 640.919 408.047V435H634.634V429.46H634.314C633.888 430.348 633.178 431.298 632.183 432.31C631.189 433.322 629.866 434.183 628.215 434.893C626.564 435.604 624.548 435.959 622.169 435.959ZM623.128 430.312C625.614 430.312 627.709 429.824 629.413 428.848C631.136 427.871 632.432 426.61 633.302 425.066C634.19 423.521 634.634 421.896 634.634 420.192V414.439C634.367 414.759 633.781 415.051 632.876 415.318C631.988 415.566 630.958 415.788 629.786 415.984C628.632 416.161 627.505 416.321 626.404 416.463C625.321 416.587 624.442 416.694 623.767 416.783C622.134 416.996 620.607 417.342 619.186 417.821C617.783 418.283 616.647 418.984 615.777 419.925C614.925 420.849 614.499 422.109 614.499 423.707C614.499 425.891 615.307 427.543 616.922 428.661C618.556 429.762 620.624 430.312 623.128 430.312ZM652.392 435V394.091H658.677V435H652.392ZM655.588 387.273C654.362 387.273 653.306 386.855 652.418 386.021C651.548 385.186 651.113 384.183 651.113 383.011C651.113 381.839 651.548 380.836 652.418 380.002C653.306 379.167 654.362 378.75 655.588 378.75C656.813 378.75 657.86 379.167 658.73 380.002C659.618 380.836 660.062 381.839 660.062 383.011C660.062 384.183 659.618 385.186 658.73 386.021C657.86 386.855 656.813 387.273 655.588 387.273ZM676.475 380.455V435H670.189V380.455H676.475ZM700.026 435.959C697.433 435.959 695.081 435.471 692.968 434.494C690.855 433.5 689.177 432.07 687.934 430.206C686.691 428.324 686.07 426.051 686.07 423.388C686.07 421.044 686.531 419.144 687.455 417.688C688.378 416.214 689.612 415.06 691.157 414.226C692.701 413.391 694.406 412.77 696.27 412.362C698.152 411.935 700.043 411.598 701.943 411.349C704.429 411.03 706.444 410.79 707.989 410.63C709.551 410.453 710.688 410.16 711.398 409.751C712.126 409.343 712.49 408.633 712.49 407.621V407.408C712.49 404.78 711.771 402.738 710.333 401.282C708.912 399.826 706.755 399.098 703.861 399.098C700.86 399.098 698.507 399.755 696.803 401.069C695.098 402.383 693.9 403.786 693.207 405.277L687.241 403.146C688.307 400.661 689.727 398.725 691.503 397.34C693.296 395.937 695.249 394.961 697.362 394.411C699.493 393.842 701.588 393.558 703.648 393.558C704.962 393.558 706.471 393.718 708.175 394.038C709.898 394.339 711.558 394.97 713.156 395.929C714.772 396.887 716.112 398.335 717.178 400.27C718.243 402.205 718.776 404.798 718.776 408.047V435H712.49V429.46H712.17C711.744 430.348 711.034 431.298 710.04 432.31C709.045 433.322 707.723 434.183 706.071 434.893C704.42 435.604 702.405 435.959 700.026 435.959ZM700.984 430.312C703.47 430.312 705.565 429.824 707.27 428.848C708.992 427.871 710.288 426.61 711.158 425.066C712.046 423.521 712.49 421.896 712.49 420.192V414.439C712.224 414.759 711.638 415.051 710.732 415.318C709.844 415.566 708.815 415.788 707.643 415.984C706.489 416.161 705.361 416.321 704.26 416.463C703.177 416.587 702.298 416.694 701.624 416.783C699.99 416.996 698.463 417.342 697.043 417.821C695.64 418.283 694.504 418.984 693.634 419.925C692.781 420.849 692.355 422.109 692.355 423.707C692.355 425.891 693.163 427.543 694.779 428.661C696.412 429.762 698.481 430.312 700.984 430.312ZM731.1 435V380.455H737.386V400.589H737.918C738.38 399.879 739.019 398.974 739.836 397.873C740.671 396.754 741.86 395.76 743.405 394.89C744.967 394.002 747.08 393.558 749.744 393.558C753.188 393.558 756.225 394.419 758.852 396.142C761.48 397.864 763.531 400.305 765.005 403.466C766.478 406.626 767.215 410.355 767.215 414.652C767.215 418.984 766.478 422.74 765.005 425.918C763.531 429.078 761.489 431.529 758.879 433.269C756.269 434.991 753.259 435.852 749.85 435.852C747.222 435.852 745.118 435.417 743.538 434.547C741.958 433.659 740.742 432.656 739.889 431.538C739.037 430.401 738.38 429.46 737.918 428.714H737.173V435H731.1ZM737.279 414.545C737.279 417.635 737.732 420.36 738.638 422.722C739.543 425.066 740.866 426.903 742.606 428.235C744.346 429.549 746.477 430.206 748.998 430.206C751.626 430.206 753.819 429.513 755.576 428.129C757.352 426.726 758.684 424.844 759.571 422.482C760.477 420.103 760.93 417.457 760.93 414.545C760.93 411.669 760.486 409.077 759.598 406.768C758.728 404.442 757.405 402.605 755.63 401.255C753.872 399.888 751.661 399.205 748.998 399.205C746.441 399.205 744.293 399.853 742.553 401.149C740.813 402.427 739.499 404.221 738.611 406.529C737.723 408.819 737.279 411.491 737.279 414.545ZM783.116 380.455V435H776.83V380.455H783.116ZM811.78 435.852C807.838 435.852 804.438 434.982 801.579 433.242C798.738 431.484 796.545 429.034 795.001 425.891C793.474 422.731 792.71 419.055 792.71 414.865C792.71 410.675 793.474 406.982 795.001 403.786C796.545 400.572 798.694 398.068 801.446 396.275C804.216 394.464 807.447 393.558 811.141 393.558C813.271 393.558 815.375 393.913 817.453 394.624C819.53 395.334 821.421 396.488 823.126 398.086C824.83 399.666 826.189 401.761 827.201 404.371C828.213 406.982 828.719 410.195 828.719 414.013V416.676H797.185V411.243H822.327C822.327 408.935 821.865 406.875 820.942 405.064C820.036 403.253 818.74 401.824 817.053 400.776C815.384 399.728 813.413 399.205 811.141 399.205C808.637 399.205 806.471 399.826 804.642 401.069C802.831 402.294 801.437 403.892 800.461 405.863C799.484 407.834 798.996 409.947 798.996 412.202V415.824C798.996 418.913 799.528 421.532 800.594 423.681C801.677 425.811 803.177 427.436 805.095 428.555C807.012 429.656 809.241 430.206 811.78 430.206C813.431 430.206 814.923 429.975 816.254 429.513C817.604 429.034 818.767 428.324 819.743 427.383C820.72 426.424 821.474 425.234 822.007 423.814L828.08 425.518C827.44 427.578 826.366 429.389 824.857 430.952C823.348 432.496 821.483 433.704 819.264 434.574C817.044 435.426 814.55 435.852 811.78 435.852Z" fill="#D4B50B"/>
</svg>
